<?xml version="1.0" encoding="UTF-8"?>
<svg id="Layer_1" data-name="Layer 1" xmlns="http://www.w3.org/2000/svg" version="1.1" viewBox="0 0 456 50">
  <defs>
    <style>
      .cls-1 {
        isolation: isolate;
      }

      .cls-2 {
        fill: #fff;
        stroke-width: 0px;
      }
    </style>
  </defs>
  <g id="Connect_DCEG_Logo-WHITE-01" data-name="Connect DCEG Logo-WHITE-01">
    <path id="Path" class="cls-2" d="M67.7,2.6c-1-1.6-2.7-2.6-4.6-2.6h-4.1l13.9,25-13.9,25h4.1c1.9,0,3.7-1,4.6-2.6l12.3-22.4-12.3-22.4Z"/>
    <path id="Shape" class="cls-2" d="M55.2,0H5.3C2.4,0,0,2.4,0,5.4v39.3c0,3,2.4,5.4,5.3,5.4h49.9l13.8-25L55.2,0ZM25.8,36.1h-3.7l-10.1-16.3v16.3h-3.7V13.9h3.7l10.1,16.3V13.9h3.7v22.2ZM33.1,36.1h-3.7V13.9h3.7v22.2ZM54.3,36.1h-3.7v-9.3h-10.1v9.3h-3.7V13.9h3.7v9.3h10.1v-9.3h3.7v22.2Z"/>
    <g id="Group">
      <path id="Path-2" data-name="Path" class="cls-2" d="M101.4,32.4c-.6-.4-1.2-.5-1.8-.5s-1.3.2-1.8.5c-.6.4-1,.8-1.3,1.4-.4.6-.5,1.3-.5,2s.2,1.4.5,2,.7,1.1,1.3,1.4c.6.4,1.2.5,1.8.5s1.1-.2,1.8-.5c.6-.3,1.1-.6,1.7-1.2l2,2.2c-.7.7-1.6,1.4-2.6,1.8-1,.5-2,.6-3,.6s-2.6-.3-3.6-.9c-1.1-.6-1.9-1.5-2.6-2.5s-.9-2.3-.9-3.5.3-2.5.9-3.5c.6-1,1.5-1.9,2.6-2.5,1.1-.6,2.3-.9,3.7-.9s2,.2,3,.6c.9.5,1.8,1,2.5,1.7l-2,2.5c-.4-.5-.9-1-1.5-1.3Z"/>
      <path id="Shape-2" data-name="Shape" class="cls-2" d="M114.2,32.7c.8.5,1.6,1.1,2,1.8.5.8.7,1.7.7,2.7s-.3,2-.7,2.8-1.1,1.5-2,1.8c-.8.5-1.8.6-3,.6s-2.1-.2-3-.6c-.8-.5-1.6-1.1-2-1.8-.5-.8-.7-1.7-.7-2.8s.3-2,.7-2.7c.5-.8,1.1-1.5,2-1.8.8-.5,1.8-.6,3-.6,1.2,0,2.2.2,3,.6ZM109.6,35.5c-.4.5-.6,1.1-.6,1.8s.2,1.4.6,1.9c.4.5.9.7,1.7.7s1.2-.3,1.7-.7c.5-.5.6-1.1.6-1.9s-.2-1.4-.6-1.8c-.5-.5-.9-.7-1.7-.7-.7,0-1.2.3-1.7.7Z"/>
      <path id="Path-3" data-name="Path" class="cls-2" d="M128.4,33.1c.6.7,1,1.6,1,2.9v6.5h-3.4v-5.5c0-.5-.2-1.1-.5-1.4-.3-.3-.7-.5-1.3-.5s-1,.2-1.4.5c-.4.4-.6.8-.6,1.5v5.5h-3.4v-10.3h3.4v1.6c.4-.6.8-1.1,1.5-1.4.6-.3,1.3-.5,2-.5s1.9.4,2.7,1.1Z"/>
      <path id="Path-4" data-name="Path" class="cls-2" d="M141.4,33.1c.6.7,1,1.6,1,2.9v6.5h-3.3v-5.5c0-.5-.2-1.1-.5-1.4-.3-.3-.7-.5-1.3-.5s-1,.2-1.4.5c-.4.4-.6.8-.6,1.5v5.5h-3.4v-10.3h3.4v1.6c.4-.6.8-1.1,1.5-1.4.6-.3,1.3-.5,2-.5s1.9.4,2.6,1.1Z"/>
      <path id="Shape-3" data-name="Shape" class="cls-2" d="M153.4,33.5c.9,1,1.4,2.4,1.4,4.1v.6h-7.4c.2.5.5,1,.8,1.4.4.3.9.5,1.5.5s.9,0,1.3-.3c.5-.2.8-.5,1.1-.8l1.8,1.8c-.6.6-1.2,1.1-1.9,1.4-.7.3-1.7.5-2.6.5s-2.1-.2-3-.6-1.5-1-1.9-1.8-.6-1.7-.6-2.7.2-2,.6-2.8,1.1-1.5,1.9-1.9c.8-.5,1.8-.6,2.9-.6,1.8,0,3.1.5,4.1,1.5ZM151.4,36.4c0-.6-.2-1.1-.6-1.5-.4-.4-.8-.5-1.4-.5s-1,.2-1.4.5c-.4.4-.6.8-.7,1.5h4.1Z"/>
      <path id="Path-5" data-name="Path" class="cls-2" d="M161.3,34.8c-.6,0-1.1.3-1.5.7-.4.5-.6,1.1-.6,1.8s.2,1.4.6,1.8c.4.5.9.7,1.5.7.9,0,1.7-.4,2-1.2l2.6,1.5c-.4.8-1,1.4-1.8,1.8s-1.8.6-3,.6-2-.2-2.9-.6-1.5-1-1.8-1.8c-.4-.8-.6-1.7-.6-2.7s.2-2,.6-2.8c.5-.8,1.1-1.5,1.9-1.9.8-.5,1.8-.6,2.9-.6s1.9.2,2.8.6c.8.5,1.5,1,1.9,1.8l-2.5,1.5c-.6-.8-1.3-1.2-2.1-1.2Z"/>
      <path id="Path-6" data-name="Path" class="cls-2" d="M174.3,41.9c-.4.2-.8.4-1.3.5-.5.2-1,.2-1.6.2-1,0-1.8-.3-2.5-.9-.6-.5-.9-1.4-.9-2.5v-4.5h-1.5v-2.3h1.5v-2.8h3.4v2.8h2.7v2.3h-2.7v4c0,.7.3,1.1.9,1.1s.8,0,1.3-.4l.6,2.4Z"/>
      <path id="Path-7" data-name="Path" class="cls-2" d="M184.7,31.2c-.2.2-.4.5-.4.8v.6h2.3v2.3h-2.3v7.5h-3.4v-7.5h-1.4v-2.3h1.4v-.9c0-1.1.4-2,1.1-2.5.7-.6,1.7-.9,2.9-.9s1.5,0,2.2.4l-.5,2.5c-.6-.2-.9-.3-1.2-.3s-.6,0-.7.3Z"/>
      <path id="Shape-4" data-name="Shape" class="cls-2" d="M195.6,32.7c.8.5,1.6,1.1,2,1.8.5.8.7,1.7.7,2.7s-.3,2-.7,2.8-1.1,1.5-2,1.8c-.8.5-1.8.6-3,.6s-2.1-.2-3-.6c-.8-.5-1.6-1.1-2-1.8-.5-.8-.7-1.7-.7-2.8s.3-2,.7-2.7c.5-.8,1.1-1.5,2-1.8.8-.5,1.8-.6,3-.6,1.2,0,2.2.2,3,.6ZM190.9,35.5c-.4.5-.6,1.1-.6,1.8s.2,1.4.6,1.9c.4.5.9.7,1.7.7s1.2-.3,1.7-.7c.5-.5.6-1.1.6-1.9s-.2-1.4-.6-1.8c-.5-.5-.9-.7-1.7-.7-.6,0-1.2.3-1.7.7Z"/>
      <path id="Path-8" data-name="Path" class="cls-2" d="M205,32.5c.6-.3,1.2-.5,1.9-.5v3.1h-.6c-.8,0-1.5.2-1.9.5-.5.4-.8.9-.8,1.5v5.3h-3.5v-10.3h3.4v1.7c.4-.6.9-1.1,1.5-1.5Z"/>
      <path id="Path-9" data-name="Path" class="cls-2" d="M221.1,32.4c-.6-.4-1.2-.5-1.8-.5s-1.3.2-1.8.5c-.6.4-1,.8-1.3,1.4-.4.6-.5,1.3-.5,2s.2,1.4.5,2,.7,1.1,1.3,1.4c.6.3,1.2.5,1.8.5s1.1-.2,1.8-.5c.6-.3,1.1-.6,1.7-1.2l2,2.2c-.7.7-1.6,1.4-2.6,1.8-1,.5-2,.6-3,.6s-2.6-.3-3.6-.9c-1.1-.6-1.9-1.5-2.6-2.5-.6-1.1-.9-2.3-.9-3.5s.3-2.5.9-3.5c.6-1,1.5-1.9,2.6-2.5,1.1-.6,2.3-.9,3.7-.9s2,.2,3,.6,1.8,1,2.5,1.7l-2,2.5c-.4-.5-.9-1-1.5-1.3Z"/>
      <path id="Shape-5" data-name="Shape" class="cls-2" d="M234.2,33c.8.6,1.2,1.5,1.2,2.7v6.7h-3.4v-1.2c-.7.9-1.8,1.3-3.1,1.3s-2-.3-2.6-.9c-.6-.6-.9-1.4-.9-2.4s.4-1.7,1-2.3c.6-.5,1.7-.8,3-.8h2.8c0-.5-.2-1-.6-1.3-.4-.3-.8-.4-1.5-.4s-.9,0-1.5.2c-.6.2-1.1.4-1.7.6l-.9-2.3c.8-.4,1.7-.6,2.5-.8.7-.2,1.6-.3,2.4-.3,1.4,0,2.5.4,3.3,1ZM231.2,39.9c.4-.3.6-.5.7-1v-.9h-2c-.9,0-1.5.4-1.5,1.1s0,.6.4.8.6.3,1,.3c.6,0,1,0,1.4-.3Z"/>
      <path id="Path-10" data-name="Path" class="cls-2" d="M247.4,33.1c.6.7,1,1.6,1,2.9v6.5h-3.4v-5.5c0-.5-.2-1.1-.5-1.4-.3-.3-.7-.5-1.3-.5s-1,.2-1.4.5c-.4.4-.6.8-.6,1.5v5.5h-3.4v-10.3h3.4v1.6c.4-.6.8-1.1,1.5-1.4.6-.3,1.3-.5,2-.5,1.1,0,2,.4,2.7,1.1Z"/>
      <path id="Path-11" data-name="Path" class="cls-2" d="M255.5,34.8c-.6,0-1.1.3-1.5.7-.4.5-.6,1.1-.6,1.8s.2,1.4.6,1.8c.4.5.9.7,1.5.7.9,0,1.7-.4,2-1.2l2.6,1.5c-.4.8-1,1.4-1.8,1.8-.8.5-1.8.6-3,.6s-2-.2-2.9-.6c-.8-.5-1.5-1-1.8-1.8-.4-.8-.6-1.7-.6-2.7s.2-2,.6-2.8c.5-.8,1.1-1.5,1.9-1.9.8-.5,1.8-.6,2.9-.6s1.9.2,2.8.6c.8.5,1.5,1,1.9,1.8l-2.5,1.5c-.6-.8-1.3-1.2-2.1-1.2Z"/>
      <path id="Shape-6" data-name="Shape" class="cls-2" d="M269.9,33.5c.9,1,1.4,2.4,1.4,4.1v.6h-7.3c.2.5.5,1,.8,1.4.4.4.9.5,1.5.5s.9,0,1.3-.3c.5-.2.8-.5,1.1-.8l1.8,1.8c-.6.6-1.2,1.1-1.9,1.4-.7.3-1.7.5-2.6.5s-2.1-.2-3-.6c-.8-.5-1.5-1-1.9-1.8s-.6-1.7-.6-2.7.2-2,.6-2.8,1.1-1.5,1.9-1.9c.8-.5,1.8-.6,2.9-.6,1.8,0,3,.5,4,1.5ZM268,36.4c0-.6-.2-1.1-.6-1.5-.4-.4-.8-.5-1.4-.5s-1,.2-1.4.5c-.4.4-.6.8-.7,1.5h4.1Z"/>
      <path id="Path-12" data-name="Path" class="cls-2" d="M278,32.5c.6-.3,1.2-.5,1.9-.5v3.1h-.6c-.8,0-1.5.2-1.9.5-.5.4-.8.9-.8,1.5v5.3h-3.5v-10.3h3.4v1.7c.5-.6.9-1.1,1.5-1.5Z"/>
      <path id="Shape-7" data-name="Shape" class="cls-2" d="M295.8,30.4c.9.8,1.5,2,1.5,3.5s-.5,2.8-1.5,3.6c-1,.8-2.3,1.3-4.1,1.3h-2.4v3.7h-3.5v-13.4h6c1.7,0,3,.5,4,1.3ZM293.2,35.5c.4-.4.6-.9.6-1.5s-.2-1.2-.6-1.5c-.4-.3-.9-.5-1.7-.5h-2.2v4.1h2.2c.7,0,1.3-.2,1.7-.5Z"/>
      <path id="Path-13" data-name="Path" class="cls-2" d="M303.8,32.5c.6-.3,1.2-.5,1.9-.5v3.1h-.6c-.8,0-1.5.2-1.9.5-.5.4-.8.9-.8,1.5v5.3h-3.5v-10.3h3.4v1.7c.4-.6.8-1.1,1.5-1.5Z"/>
      <path id="Shape-8" data-name="Shape" class="cls-2" d="M315.9,33.5c.9,1,1.4,2.4,1.4,4.1v.6h-7.3c.2.5.5,1,.8,1.4.4.4.9.5,1.5.5s.9,0,1.3-.3c.5-.2.8-.5,1.1-.8l1.8,1.8c-.6.6-1.2,1.1-1.9,1.4-.7.3-1.7.5-2.6.5s-2.1-.2-3-.6c-.8-.5-1.5-1-1.9-1.8s-.6-1.7-.6-2.7.2-2,.6-2.8,1.1-1.5,1.9-1.9c.8-.5,1.8-.6,2.9-.6,1.8,0,3,.5,4,1.5ZM313.9,36.4c0-.6-.2-1.1-.6-1.5-.4-.4-.8-.5-1.4-.5s-1,.2-1.4.5c-.4.4-.6.8-.7,1.5h4.1Z"/>
      <polygon id="Path-14" data-name="Path" class="cls-2" points="317.2 32.2 320.7 32.2 323 39.4 325.2 32.2 328.6 32.2 324.7 42.5 321.2 42.5 317.2 32.2"/>
      <path id="Shape-9" data-name="Shape" class="cls-2" d="M338,33.5c.9,1,1.4,2.4,1.4,4.1v.6h-7.3c.2.5.5,1,.8,1.4.4.4.9.5,1.5.5s.9,0,1.3-.3c.5-.2.8-.5,1.1-.8l1.8,1.8c-.6.6-1.2,1.1-1.9,1.4-.7.3-1.7.5-2.6.5s-2.1-.2-3-.6c-.8-.5-1.5-1-1.9-1.8s-.6-1.7-.6-2.7.2-2,.6-2.8,1.1-1.5,1.9-1.9c.8-.5,1.8-.6,2.9-.6,1.8,0,3,.5,4,1.5ZM336.1,36.4c0-.6-.2-1.1-.6-1.5-.4-.4-.8-.5-1.4-.5s-1,.2-1.4.5c-.4.4-.6.8-.7,1.5h4.1Z"/>
      <path id="Path-15" data-name="Path" class="cls-2" d="M350.9,33.1c.6.7,1,1.6,1,2.9v6.5h-3.4v-5.5c0-.5-.2-1.1-.5-1.4-.3-.3-.7-.5-1.3-.5s-1,.2-1.4.5c-.4.4-.6.8-.6,1.5v5.5h-3.4v-10.3h3.4v1.6c.4-.6.8-1.1,1.5-1.4.6-.3,1.3-.5,2-.5,1.1,0,2,.4,2.7,1.1Z"/>
      <path id="Path-16" data-name="Path" class="cls-2" d="M361.1,41.9c-.4.2-.8.4-1.3.5-.5.2-1,.2-1.6.2-1,0-1.8-.3-2.5-.9-.6-.5-.9-1.4-.9-2.5v-4.5h-1.5v-2.3h1.5v-2.8h3.4v2.8h2.7v2.3h-2.7v4c0,.7.3,1.1.9,1.1s.8,0,1.3-.4l.6,2.4Z"/>
      <path id="Shape-10" data-name="Shape" class="cls-2" d="M365.7,27.9c.4.4.6.8.6,1.3s-.2.9-.6,1.3c-.4.4-.7.5-1.3.5s-.9-.2-1.3-.5c-.4-.4-.6-.8-.6-1.3s.2-1,.6-1.3c.4-.4.7-.5,1.3-.5s.9.2,1.3.5ZM362.8,32.2h3.4v10.3h-3.4v-10.3Z"/>
      <path id="Shape-11" data-name="Shape" class="cls-2" d="M376.7,32.7c.8.5,1.6,1.1,2,1.8.5.8.7,1.7.7,2.7s-.3,2-.7,2.8c-.5.8-1.1,1.5-2,1.8-.8.5-1.8.6-3,.6s-2.1-.2-3-.6c-.8-.5-1.6-1.1-2-1.8-.5-.7-.7-1.7-.7-2.8s.3-2,.7-2.7c.5-.7,1.1-1.5,2-1.8.8-.5,1.8-.6,3-.6,1.1,0,2.1.2,3,.6ZM372,35.5c-.4.5-.6,1.1-.6,1.8s.2,1.4.6,1.9c.5.5.9.7,1.7.7s1.2-.3,1.7-.7c.4-.5.6-1.1.6-1.9s-.2-1.4-.6-1.8c-.5-.5-.9-.7-1.7-.7-.6,0-1.2.3-1.7.7Z"/>
      <path id="Path-17" data-name="Path" class="cls-2" d="M390.9,33.1c.6.7,1,1.6,1,2.9v6.5h-3.4v-5.5c0-.5-.2-1.1-.5-1.4-.3-.3-.7-.5-1.3-.5s-1,.2-1.4.5c-.4.4-.6.8-.6,1.5v5.5h-3.5v-10.3h3.4v1.6c.4-.6.8-1.1,1.5-1.4.6-.3,1.3-.5,2-.5,1.2,0,2.1.4,2.8,1.1Z"/>
      <path id="Path-18" data-name="Path" class="cls-2" d="M405.6,32.1c-.8-.3-1.5-.4-2-.4s-.8,0-1,.3c-.3.2-.4.4-.4.7s0,.5.4.7c.2.2.5.4.8.5.3,0,.8.3,1.5.5.9.3,1.8.5,2.3.8.6.3,1.1.6,1.6,1.3.5.5.6,1.3.6,2.2s-.3,1.6-.7,2.3c-.5.6-1.1,1.1-1.9,1.5-.8.3-1.8.5-2.8.5s-2.2-.2-3.3-.5c-1.1-.4-2.1-.9-2.9-1.6l1.4-2.7c.6.6,1.5,1.1,2.4,1.5.9.4,1.8.5,2.5.5s.9,0,1.3-.3.5-.5.5-.8,0-.5-.4-.7c-.2-.2-.6-.4-.8-.5-.4,0-.8-.3-1.5-.5-.9-.3-1.7-.5-2.3-.8-.6-.3-1.1-.6-1.6-1.2-.5-.5-.6-1.3-.6-2.1s.2-1.5.6-2.2c.5-.6,1.1-1.1,1.9-1.5.8-.4,1.8-.5,2.9-.5s1.9.2,3,.5c1,.3,1.8.6,2.5,1.1l-1.3,2.8c-1-.5-1.8-.9-2.6-1.2Z"/>
      <path id="Path-19" data-name="Path" class="cls-2" d="M417.9,41.9c-.4.2-.8.4-1.3.5-.5.2-1,.2-1.6.2-1,0-1.8-.3-2.5-.9-.6-.5-.9-1.4-.9-2.5v-4.5h-1.5v-2.3h1.5v-2.8h3.4v2.8h2.7v2.3h-2.7v4c0,.7.3,1.1.9,1.1s.8,0,1.3-.4l.6,2.4Z"/>
      <path id="Path-20" data-name="Path" class="cls-2" d="M429.9,32.2v10.3h-3.4v-1.6c-.7,1.2-1.8,1.8-3.3,1.8s-2-.4-2.8-1.1c-.6-.7-1-1.6-1-2.9v-6.5h3.4v5.5c0,.5.2,1,.5,1.4s.7.5,1.2.5,1.1-.3,1.5-.6c.4-.5.6-1,.6-1.6v-5.1h3.4Z"/>
      <path id="Shape-12" data-name="Shape" class="cls-2" d="M443.1,28.3v14.2h-3.4v-1.4c-.4.5-.8.8-1.3,1.1-.6.3-1.1.4-1.8.4-.9,0-1.8-.2-2.6-.6-.7-.5-1.3-1.1-1.8-1.9-.4-.8-.6-1.7-.6-2.8s.2-2,.6-2.7c.4-.8.9-1.4,1.7-1.8s1.6-.6,2.5-.6,1.3,0,1.8.4c.6.3,1,.6,1.4,1.1v-5.2h3.4ZM439,39.2c.4-.5.6-1.1.6-1.8s-.2-1.4-.6-1.9c-.4-.5-.9-.7-1.7-.7s-1.2.3-1.7.7c-.5.5-.6,1.1-.6,1.8s.2,1.4.6,1.8c.5.5.9.7,1.7.7.6,0,1.2,0,1.7-.6Z"/>
      <path id="Path-21" data-name="Path" class="cls-2" d="M449.8,45.6c-.6.5-1.5.7-2.5.7s-1.1,0-1.7-.3c-.5-.2-1-.5-1.5-.8l1.5-2.4c.3.2.5.4.7.5.3,0,.5,0,.7,0,.6,0,1-.3,1.3-.8l.3-.5-4.3-10.1h3.5l2.5,6.7,2.2-6.7h3.4l-4.5,11.4c-.4,1-.9,1.7-1.7,2.2Z"/>
    </g>
  </g>
  <g>
    <g class="cls-1">
      <path class="cls-2" d="M93,8h2.3v10.3h-2.3V8Z"/>
      <path class="cls-2" d="M105.1,8h2.3v10.3h-2.3l-4.9-6.4v6.4h-2.3V8h2.1l5.1,6.6v-6.6Z"/>
    </g>
    <g class="cls-1">
      <path class="cls-2" d="M112.2,10c-.2.2-.4.5-.4.7s0,.6.4.7c.3.2.9.4,1.8.6,1,.3,1.7.6,2.3,1.1s.8,1.2.8,2.1-.4,1.7-1,2.2-1.6.8-2.8.8-3.1-.6-4.4-1.8l1.4-1.7c1.1,1,2.1,1.5,3,1.5s.7,0,1-.3.4-.5.4-.7,0-.6-.4-.7-.7-.4-1.5-.6c-1.2-.3-2.1-.6-2.7-1.1s-.8-1.2-.8-2.1.4-1.7,1-2.3c.7-.6,1.6-.8,2.7-.8s1.4,0,2,.4,1.3.6,1.8,1l-1.2,1.7c-.9-.6-1.8-1-2.8-1-.3,0-.6,0-.8.3Z"/>
    </g>
    <g class="cls-1">
      <path class="cls-2" d="M123.5,10v8.3h-2.3v-8.3h-2.9v-2h8.1v2h-2.9Z"/>
      <path class="cls-2" d="M128.1,8h2.3v10.3h-2.3V8Z"/>
      <path class="cls-2" d="M137.3,10v8.3h-2.3v-8.3h-2.9v-2h8.1v2h-2.9Z"/>
      <path class="cls-2" d="M144.6,15.6c.4.5.9.7,1.6.7s1.2-.3,1.6-.7.6-1.1.6-1.9v-5.7h2.3v5.8c0,1.5-.4,2.7-1.2,3.4-.8.8-1.8,1.2-3.1,1.2s-2.3-.4-3.1-1.2c-.8-.8-1.3-1.9-1.3-3.4v-5.8h2.3v5.7c0,.8,0,1.5.5,1.9Z"/>
    </g>
    <g class="cls-1">
      <path class="cls-2" d="M157.3,10v8.3h-2.3v-8.3h-2.9v-2h8.1v2h-2.9Z"/>
    </g>
    <g class="cls-1">
      <path class="cls-2" d="M170.3,16.9c-1,1-2.3,1.6-3.9,1.6s-2.8-.6-3.9-1.6c-1-1-1.6-2.3-1.6-3.8s.6-2.8,1.6-3.8c1-1,2.3-1.6,3.9-1.6s2.8.6,3.9,1.6c1,1,1.6,2.3,1.6,3.8s-.6,2.7-1.6,3.8ZM169.5,13c0-.9-.3-1.7-.9-2.4-.6-.6-1.3-1-2.2-1s-1.6.4-2.2,1-.9,1.5-.9,2.4.3,1.7.9,2.3,1.3.9,2.2.9,1.6-.3,2.2-.9c.6-.6.9-1.4.9-2.3Z"/>
      <path class="cls-2" d="M184.9,8h2.3v10.3h-2.3l-4.9-6.4v6.4h-2.4V8h2.1l5.1,6.6v-6.6h0Z"/>
      <path class="cls-2" d="M197.1,18.3l-.9-2.2h-4.3l-.9,2.2h-2.5l4.4-10.3h2.2l4.4,10.3h-2.4ZM193.9,11l-1.3,2.9h2.6l-1.3-2.9Z"/>
      <path class="cls-2" d="M205.4,16.2c1.1,0,2-.5,2.8-1.4l1.5,1.5c-1.2,1.3-2.6,1.9-4.1,1.9s-2.9-.5-4-1.5-1.6-2.3-1.6-3.8.6-2.8,1.6-3.9,2.3-1.6,3.9-1.6,3.1.6,4.2,1.9l-1.5,1.7c-.7-.9-1.7-1.4-2.7-1.4s-1.6.3-2.2.8-.9,1.3-.9,2.3.3,1.7.8,2.3,1.4,1,2.2,1Z"/>
      <path class="cls-2" d="M211.4,8h2.3v10.3h-2.3V8Z"/>
      <path class="cls-2" d="M224.9,16.9c-1,1-2.3,1.6-3.9,1.6s-2.8-.6-3.9-1.6c-1-1-1.6-2.3-1.6-3.8s.6-2.8,1.6-3.8c1-1,2.3-1.6,3.9-1.6s2.8.6,3.9,1.6c1,1,1.6,2.3,1.6,3.8s-.6,2.7-1.6,3.8ZM224.1,13c0-.9-.3-1.7-.9-2.4-.6-.6-1.3-1-2.2-1s-1.6.4-2.2,1c-.6.6-.9,1.5-.9,2.4s.3,1.7.9,2.3c.6.6,1.3.9,2.2.9s1.6-.3,2.2-.9c.6-.6.9-1.4.9-2.3Z"/>
      <path class="cls-2" d="M235.6,8h2.3v10.3h-2.3l-4.9-6.4v6.4h-2.3V8h2.1l5.1,6.6v-6.6Z"/>
      <path class="cls-2" d="M247.8,18.3l-.9-2.2h-4.3l-.9,2.2h-2.5l4.4-10.3h2.2l4.4,10.3h-2.4ZM244.7,11l-1.3,2.9h2.6l-1.3-2.9Z"/>
      <path class="cls-2" d="M251.4,18.3V8h2.3v8.3h4.4v2h-6.7Z"/>
      <path class="cls-2" d="M271.5,9.3c1,.9,1.5,2.1,1.5,3.8s-.5,2.9-1.5,3.8c-.9.9-2.4,1.4-4.4,1.4h-3.5V8h3.7c1.8,0,3.3.5,4.2,1.4ZM269.8,15.4c.6-.6.8-1.3.8-2.3s-.3-1.7-.8-2.3-1.5-.8-2.6-.8h-1.3v6.3h1.5c1,0,1.8-.3,2.4-.8Z"/>
      <path class="cls-2" d="M282.4,8v2h-5.2v2.1h4.6v1.9h-4.6v2.2h5.2v2h-7.5V8h7.5Z"/>
      <path class="cls-2" d="M284.6,18.3V8h2.3v8.3h4.4v2h-6.7Z"/>
      <path class="cls-2" d="M301.6,16.2c1.1,0,2-.5,2.8-1.4l1.5,1.5c-1.2,1.3-2.6,1.9-4.1,1.9s-2.9-.5-4-1.5-1.6-2.3-1.6-3.8.6-2.8,1.6-3.9,2.3-1.6,3.9-1.6,3.1.6,4.2,1.9l-1.5,1.7c-.7-.9-1.7-1.4-2.7-1.4s-1.6.3-2.2.8c-.6.6-.9,1.3-.9,2.3s.3,1.7.8,2.3c.6.7,1.4,1,2.2,1Z"/>
      <path class="cls-2" d="M314.9,18.3l-.9-2.2h-4.3l-.9,2.2h-2.5l4.4-10.3h2.2l4.4,10.3h-2.4ZM311.9,11l-1.3,2.9h2.6l-1.3-2.9ZM312.8,6.9h-2.1l1.8-2.6,2.3.9-2,1.7Z"/>
      <path class="cls-2" d="M325.8,8h2.3v10.3h-2.3l-4.9-6.4v6.4h-2.3V8h2.1l5.1,6.6v-6.6Z"/>
      <path class="cls-2" d="M335.3,16.2c1.1,0,2-.5,2.8-1.4l1.5,1.5c-1.2,1.3-2.6,1.9-4.1,1.9s-2.9-.5-4-1.5-1.6-2.3-1.6-3.8.6-2.8,1.6-3.9,2.3-1.6,3.9-1.6,3.1.6,4.2,1.9l-1.5,1.7c-.7-.9-1.7-1.4-2.7-1.4s-1.6.3-2.2.8c-.6.6-.9,1.3-.9,2.3s.3,1.7.8,2.3c.6.7,1.4,1,2.2,1Z"/>
      <path class="cls-2" d="M348.8,8v2h-5.2v2.1h4.6v1.9h-4.6v2.2h5.2v2h-7.5V8h7.4Z"/>
      <path class="cls-2" d="M359.4,11.4c0,1.7-.6,2.7-1.9,3.2l2.6,3.7h-2.9l-2.3-3.3h-1.6v3.3h-2.3V8h3.9c1.6,0,2.8.3,3.4.8.7.6,1.1,1.4,1.1,2.6ZM356.6,12.6c.3-.3.5-.6.5-1.2s-.2-.9-.5-1.1-.8-.3-1.6-.3h-1.7v3h1.7c.8,0,1.4-.3,1.7-.5Z"/>
    </g>
  </g>
</svg>